STARTFONT 2.1
FONT -FontForge-04b31-Book-R-Normal--12-120-75-75-P-127-ISO10646-1
SIZE 12 75 75
FONTBOUNDINGBOX 15 11 0 -2
COMMENT "Generated by fontforge, http://fontforge.sourceforge.net"
COMMENT "2000-2003 / yuji oshimoo / 04@dsg4.com / www.04.jp.org"
STARTPROPERTIES 39
FOUNDRY "FontForge"
FAMILY_NAME "04b31"
WEIGHT_NAME "Book"
SLANT "R"
SETWIDTH_NAME "Normal"
ADD_STYLE_NAME ""
PIXEL_SIZE 12
POINT_SIZE 120
RESOLUTION_X 75
RESOLUTION_Y 75
SPACING "P"
AVERAGE_WIDTH 127
CHARSET_REGISTRY "ISO10646"
CHARSET_ENCODING "1"
FONTNAME_REGISTRY ""
CHARSET_COLLECTIONS "ISO10646-1"
FONT_NAME "04b31"
FACE_NAME "04b31"
COPYRIGHT "2000-2003 / yuji oshimoo / 04@dsg4.com / www.04.jp.org"
FONT_VERSION "Macromedia Fonographer 4.1J 03.3.25"
FONT_ASCENT 9
FONT_DESCENT 3
UNDERLINE_POSITION -2
UNDERLINE_THICKNESS 1
X_HEIGHT 7
CAP_HEIGHT 7
RAW_ASCENT 750
RAW_DESCENT 250
NORM_SPACE 10
RELATIVE_WEIGHT 40
RELATIVE_SETWIDTH 50
SUPERSCRIPT_X 0
SUPERSCRIPT_Y 5
SUPERSCRIPT_SIZE 7
SUBSCRIPT_X 0
SUBSCRIPT_Y 1
SUBSCRIPT_SIZE 7
AVG_LOWERCASE_WIDTH 150
AVG_UPPERCASE_WIDTH 155
ENDPROPERTIES
CHARS 101
STARTCHAR space
ENCODING 32
SWIDTH 833 0
DWIDTH 10 0
BBX 1 1 0 0
BITMAP
00
ENDCHAR
STARTCHAR exclam
ENCODING 33
SWIDTH 333 0
DWIDTH 4 0
BBX 2 8 1 0
BITMAP
C0
C0
C0
C0
C0
00
C0
C0
ENDCHAR
STARTCHAR quotedbl
ENCODING 34
SWIDTH 583 0
DWIDTH 7 0
BBX 5 4 1 4
BITMAP
D8
D8
D8
D8
ENDCHAR
STARTCHAR numbersign
ENCODING 35
SWIDTH 1333 0
DWIDTH 16 0
BBX 14 8 1 0
BITMAP
3030
FFFC
FFFC
3030
3030
FFFC
FFFC
3030
ENDCHAR
STARTCHAR dollar
ENCODING 36
SWIDTH 1333 0
DWIDTH 16 0
BBX 14 8 1 0
BITMAP
FFFC
FFFC
C300
FFFC
FFFC
030C
FFFC
FFFC
ENDCHAR
STARTCHAR percent
ENCODING 37
SWIDTH 1333 0
DWIDTH 16 0
BBX 14 8 1 0
BITMAP
FF0C
FF0C
000C
FFFC
FFFC
C000
C3FC
C3FC
ENDCHAR
STARTCHAR ampersand
ENCODING 38
SWIDTH 1333 0
DWIDTH 16 0
BBX 14 8 1 0
BITMAP
FFF0
FFF0
C000
FFFC
FFFC
C030
FFF0
FFF0
ENDCHAR
STARTCHAR quotesingle
ENCODING 39
SWIDTH 333 0
DWIDTH 4 0
BBX 2 4 1 4
BITMAP
C0
C0
C0
C0
ENDCHAR
STARTCHAR parenleft
ENCODING 40
SWIDTH 500 0
DWIDTH 6 0
BBX 4 8 1 0
BITMAP
30
30
C0
C0
C0
C0
30
30
ENDCHAR
STARTCHAR parenright
ENCODING 41
SWIDTH 500 0
DWIDTH 6 0
BBX 4 8 1 0
BITMAP
C0
C0
30
30
30
30
C0
C0
ENDCHAR
STARTCHAR asterisk
ENCODING 42
SWIDTH 666 0
DWIDTH 8 0
BBX 6 6 1 2
BITMAP
30
30
FC
FC
30
30
ENDCHAR
STARTCHAR plus
ENCODING 43
SWIDTH 1000 0
DWIDTH 12 0
BBX 10 8 1 0
BITMAP
0C00
0C00
0C00
FFC0
FFC0
0C00
0C00
0C00
ENDCHAR
STARTCHAR comma
ENCODING 44
SWIDTH 333 0
DWIDTH 4 0
BBX 2 3 1 -1
BITMAP
C0
C0
C0
ENDCHAR
STARTCHAR hyphen
ENCODING 45
SWIDTH 1000 0
DWIDTH 12 0
BBX 10 2 1 3
BITMAP
FFC0
FFC0
ENDCHAR
STARTCHAR period
ENCODING 46
SWIDTH 333 0
DWIDTH 4 0
BBX 2 2 1 0
BITMAP
C0
C0
ENDCHAR
STARTCHAR slash
ENCODING 47
SWIDTH 833 0
DWIDTH 10 0
BBX 8 8 1 0
BITMAP
03
03
0C
0C
30
30
C0
C0
ENDCHAR
STARTCHAR zero
ENCODING 48
SWIDTH 1333 0
DWIDTH 16 0
BBX 14 8 1 0
BITMAP
FFFC
FFFC
C00C
C00C
C00C
C00C
FFFC
FFFC
ENDCHAR
STARTCHAR one
ENCODING 49
SWIDTH 500 0
DWIDTH 6 0
BBX 4 8 1 0
BITMAP
F0
F0
30
30
30
30
30
30
ENDCHAR
STARTCHAR two
ENCODING 50
SWIDTH 1333 0
DWIDTH 16 0
BBX 14 8 1 0
BITMAP
FFFC
FFFC
000C
FFFC
FFFC
C000
FFFC
FFFC
ENDCHAR
STARTCHAR three
ENCODING 51
SWIDTH 1333 0
DWIDTH 16 0
BBX 14 8 1 0
BITMAP
FFFC
FFFC
000C
FFFC
FFFC
000C
FFFC
FFFC
ENDCHAR
STARTCHAR four
ENCODING 52
SWIDTH 1333 0
DWIDTH 16 0
BBX 14 8 1 0
BITMAP
C00C
C00C
C00C
C00C
FFFC
FFFC
000C
000C
ENDCHAR
STARTCHAR five
ENCODING 53
SWIDTH 1333 0
DWIDTH 16 0
BBX 14 8 1 0
BITMAP
FFFC
FFFC
C000
FFFC
FFFC
000C
FFFC
FFFC
ENDCHAR
STARTCHAR six
ENCODING 54
SWIDTH 1333 0
DWIDTH 16 0
BBX 14 8 1 0
BITMAP
FFFC
FFFC
C000
FFFC
FFFC
C00C
FFFC
FFFC
ENDCHAR
STARTCHAR seven
ENCODING 55
SWIDTH 1333 0
DWIDTH 16 0
BBX 14 8 1 0
BITMAP
FFFC
FFFC
000C
000C
000C
000C
000C
000C
ENDCHAR
STARTCHAR eight
ENCODING 56
SWIDTH 1333 0
DWIDTH 16 0
BBX 14 8 1 0
BITMAP
FFFC
FFFC
C00C
FFFC
FFFC
C00C
FFFC
FFFC
ENDCHAR
STARTCHAR nine
ENCODING 57
SWIDTH 1333 0
DWIDTH 16 0
BBX 14 8 1 0
BITMAP
FFFC
FFFC
C00C
FFFC
FFFC
000C
FFFC
FFFC
ENDCHAR
STARTCHAR colon
ENCODING 58
SWIDTH 333 0
DWIDTH 4 0
BBX 2 6 1 1
BITMAP
C0
C0
00
00
C0
C0
ENDCHAR
STARTCHAR semicolon
ENCODING 59
SWIDTH 333 0
DWIDTH 4 0
BBX 2 7 1 0
BITMAP
C0
C0
00
00
C0
C0
C0
ENDCHAR
STARTCHAR less
ENCODING 60
SWIDTH 500 0
DWIDTH 6 0
BBX 4 6 1 1
BITMAP
30
30
C0
C0
30
30
ENDCHAR
STARTCHAR equal
ENCODING 61
SWIDTH 1000 0
DWIDTH 12 0
BBX 10 6 1 1
BITMAP
FFC0
FFC0
0000
0000
FFC0
FFC0
ENDCHAR
STARTCHAR greater
ENCODING 62
SWIDTH 500 0
DWIDTH 6 0
BBX 4 6 1 1
BITMAP
C0
C0
30
30
C0
C0
ENDCHAR
STARTCHAR question
ENCODING 63
SWIDTH 1333 0
DWIDTH 16 0
BBX 14 8 1 0
BITMAP
FFFC
FFFC
000C
0FFC
0FFC
0000
0F00
0F00
ENDCHAR
STARTCHAR at
ENCODING 64
SWIDTH 1333 0
DWIDTH 16 0
BBX 14 8 1 0
BITMAP
FFFC
FFFC
C00C
CFFC
CFFC
CC0C
FFFC
FFFC
ENDCHAR
STARTCHAR A
ENCODING 65
SWIDTH 1333 0
DWIDTH 16 0
BBX 14 8 1 0
BITMAP
FFFC
FFFC
C00C
FFFC
FFFC
C00C
C00C
C00C
ENDCHAR
STARTCHAR B
ENCODING 66
SWIDTH 1333 0
DWIDTH 16 0
BBX 14 8 1 0
BITMAP
FFF0
FFF0
C030
FFFC
FFFC
C00C
FFFC
FFFC
ENDCHAR
STARTCHAR C
ENCODING 67
SWIDTH 1333 0
DWIDTH 16 0
BBX 14 8 1 0
BITMAP
FFFC
FFFC
C000
C000
C000
C000
FFFC
FFFC
ENDCHAR
STARTCHAR D
ENCODING 68
SWIDTH 1333 0
DWIDTH 16 0
BBX 14 8 1 0
BITMAP
FFF0
FFF0
C00C
C00C
C00C
C00C
FFFC
FFFC
ENDCHAR
STARTCHAR E
ENCODING 69
SWIDTH 1333 0
DWIDTH 16 0
BBX 14 8 1 0
BITMAP
FFFC
FFFC
C000
FFFC
FFFC
C000
FFFC
FFFC
ENDCHAR
STARTCHAR F
ENCODING 70
SWIDTH 1333 0
DWIDTH 16 0
BBX 14 8 1 0
BITMAP
FFFC
FFFC
C000
FFFC
FFFC
C000
C000
C000
ENDCHAR
STARTCHAR G
ENCODING 71
SWIDTH 1333 0
DWIDTH 16 0
BBX 14 8 1 0
BITMAP
FFFC
FFFC
C000
DFFC
DFFC
C00C
FFFC
FFFC
ENDCHAR
STARTCHAR H
ENCODING 72
SWIDTH 1333 0
DWIDTH 16 0
BBX 14 8 1 0
BITMAP
C00C
C00C
C00C
FFFC
FFFC
C00C
C00C
C00C
ENDCHAR
STARTCHAR I
ENCODING 73
SWIDTH 333 0
DWIDTH 4 0
BBX 2 8 1 0
BITMAP
C0
C0
C0
C0
C0
C0
C0
C0
ENDCHAR
STARTCHAR J
ENCODING 74
SWIDTH 1333 0
DWIDTH 16 0
BBX 14 8 1 0
BITMAP
01FC
01FC
000C
000C
000C
000C
FFFC
FFFC
ENDCHAR
STARTCHAR K
ENCODING 75
SWIDTH 1333 0
DWIDTH 16 0
BBX 14 8 1 0
BITMAP
C030
C030
C030
FFFC
FFFC
C00C
C00C
C00C
ENDCHAR
STARTCHAR L
ENCODING 76
SWIDTH 1333 0
DWIDTH 16 0
BBX 14 8 1 0
BITMAP
C000
C000
C000
C000
C000
C000
FFFC
FFFC
ENDCHAR
STARTCHAR M
ENCODING 77
SWIDTH 1333 0
DWIDTH 16 0
BBX 14 8 1 0
BITMAP
FFFC
FFFC
C30C
C30C
C30C
C30C
C30C
C30C
ENDCHAR
STARTCHAR N
ENCODING 78
SWIDTH 1333 0
DWIDTH 16 0
BBX 14 8 1 0
BITMAP
FFFC
FFFC
C00C
C00C
C00C
C00C
C00C
C00C
ENDCHAR
STARTCHAR O
ENCODING 79
SWIDTH 1333 0
DWIDTH 16 0
BBX 14 8 1 0
BITMAP
FFFC
FFFC
C00C
C00C
C00C
C00C
FFFC
FFFC
ENDCHAR
STARTCHAR P
ENCODING 80
SWIDTH 1333 0
DWIDTH 16 0
BBX 14 8 1 0
BITMAP
FFFC
FFFC
C00C
C00C
FFFC
FFFC
C000
C000
ENDCHAR
STARTCHAR Q
ENCODING 81
SWIDTH 1333 0
DWIDTH 16 0
BBX 14 10 1 -2
BITMAP
FFFC
FFFC
C00C
C00C
C00C
C00C
FFFC
FFFC
0300
0300
ENDCHAR
STARTCHAR R
ENCODING 82
SWIDTH 1333 0
DWIDTH 16 0
BBX 14 8 1 0
BITMAP
FFFC
FFFC
C00C
C00C
FFFC
FFFC
C030
C030
ENDCHAR
STARTCHAR S
ENCODING 83
SWIDTH 1333 0
DWIDTH 16 0
BBX 14 8 1 0
BITMAP
FFFC
FFFC
C000
FFFC
FFFC
000C
FFFC
FFFC
ENDCHAR
STARTCHAR T
ENCODING 84
SWIDTH 1333 0
DWIDTH 16 0
BBX 14 8 1 0
BITMAP
FFFC
FFFC
0300
0300
0300
0300
0300
0300
ENDCHAR
STARTCHAR U
ENCODING 85
SWIDTH 1333 0
DWIDTH 16 0
BBX 14 8 1 0
BITMAP
C00C
C00C
C00C
C00C
C00C
C00C
FFFC
FFFC
ENDCHAR
STARTCHAR V
ENCODING 86
SWIDTH 1333 0
DWIDTH 16 0
BBX 14 8 1 0
BITMAP
C00C
C00C
C00C
C00C
C00C
C00C
FFF0
FFF0
ENDCHAR
STARTCHAR W
ENCODING 87
SWIDTH 1333 0
DWIDTH 16 0
BBX 14 8 1 0
BITMAP
C30C
C30C
C30C
C30C
C30C
C30C
FFFC
FFFC
ENDCHAR
STARTCHAR X
ENCODING 88
SWIDTH 1333 0
DWIDTH 16 0
BBX 14 8 1 0
BITMAP
C00C
C00C
C00C
3FF0
3FF0
C00C
C00C
C00C
ENDCHAR
STARTCHAR Y
ENCODING 89
SWIDTH 1333 0
DWIDTH 16 0
BBX 14 8 1 0
BITMAP
C00C
C00C
C00C
FFFC
FFFC
000C
FFFC
FFFC
ENDCHAR
STARTCHAR Z
ENCODING 90
SWIDTH 1333 0
DWIDTH 16 0
BBX 14 8 1 0
BITMAP
FFFC
FFFC
000C
FFFC
FFFC
C000
FFFC
FFFC
ENDCHAR
STARTCHAR bracketleft
ENCODING 91
SWIDTH 500 0
DWIDTH 6 0
BBX 4 8 1 0
BITMAP
F0
F0
C0
C0
C0
C0
F0
F0
ENDCHAR
STARTCHAR backslash
ENCODING 92
SWIDTH 833 0
DWIDTH 10 0
BBX 8 8 1 0
BITMAP
C0
C0
30
30
0C
0C
03
03
ENDCHAR
STARTCHAR bracketright
ENCODING 93
SWIDTH 500 0
DWIDTH 6 0
BBX 4 8 1 0
BITMAP
F0
F0
30
30
30
30
F0
F0
ENDCHAR
STARTCHAR asciicircum
ENCODING 94
SWIDTH 666 0
DWIDTH 8 0
BBX 6 2 1 6
BITMAP
FC
FC
ENDCHAR
STARTCHAR underscore
ENCODING 95
SWIDTH 1000 0
DWIDTH 12 0
BBX 10 2 1 0
BITMAP
FFC0
FFC0
ENDCHAR
STARTCHAR grave
ENCODING 96
SWIDTH 500 0
DWIDTH 6 0
BBX 4 2 1 6
BITMAP
F0
F0
ENDCHAR
STARTCHAR a
ENCODING 97
SWIDTH 1333 0
DWIDTH 16 0
BBX 14 8 1 0
BITMAP
3FFC
3FFC
000C
FFFC
FFFC
C00C
FFFC
FFFC
ENDCHAR
STARTCHAR b
ENCODING 98
SWIDTH 1333 0
DWIDTH 16 0
BBX 14 8 1 0
BITMAP
C000
C000
FFFC
FFFC
C00C
C00C
FFFC
FFFC
ENDCHAR
STARTCHAR c
ENCODING 99
SWIDTH 1333 0
DWIDTH 16 0
BBX 14 6 1 0
BITMAP
FFFC
FFFC
C000
C000
FFFC
FFFC
ENDCHAR
STARTCHAR d
ENCODING 100
SWIDTH 1333 0
DWIDTH 16 0
BBX 14 8 1 0
BITMAP
000C
000C
FFFC
FFFC
C00C
C00C
FFFC
FFFC
ENDCHAR
STARTCHAR e
ENCODING 101
SWIDTH 1333 0
DWIDTH 16 0
BBX 14 8 1 0
BITMAP
FFFC
FFFC
C00C
FFFC
FFFC
C000
FFF0
FFF0
ENDCHAR
STARTCHAR f
ENCODING 102
SWIDTH 1333 0
DWIDTH 16 0
BBX 14 8 1 0
BITMAP
3FFC
3FFC
3000
FFFC
FFFC
3000
3000
3000
ENDCHAR
STARTCHAR g
ENCODING 103
SWIDTH 1333 0
DWIDTH 16 0
BBX 14 8 1 -2
BITMAP
FFFC
FFFC
C00C
FFFC
FFFC
000C
3FFC
3FFC
ENDCHAR
STARTCHAR h
ENCODING 104
SWIDTH 1333 0
DWIDTH 16 0
BBX 14 8 1 0
BITMAP
C000
C000
C000
FFFC
FFFC
C00C
C00C
C00C
ENDCHAR
STARTCHAR i
ENCODING 105
SWIDTH 333 0
DWIDTH 4 0
BBX 2 8 1 0
BITMAP
C0
C0
00
C0
C0
C0
C0
C0
ENDCHAR
STARTCHAR j
ENCODING 106
SWIDTH 1333 0
DWIDTH 16 0
BBX 14 8 1 0
BITMAP
000C
000C
0000
000C
000C
000C
FFFC
FFFC
ENDCHAR
STARTCHAR k
ENCODING 107
SWIDTH 1333 0
DWIDTH 16 0
BBX 14 8 1 0
BITMAP
C00C
C00C
C00C
FFFC
FFFC
C030
C030
C030
ENDCHAR
STARTCHAR l
ENCODING 108
SWIDTH 333 0
DWIDTH 4 0
BBX 2 8 1 0
BITMAP
C0
C0
C0
C0
C0
C0
C0
C0
ENDCHAR
STARTCHAR m
ENCODING 109
SWIDTH 1333 0
DWIDTH 16 0
BBX 14 6 1 0
BITMAP
FFFC
FFFC
C30C
C30C
C30C
C30C
ENDCHAR
STARTCHAR n
ENCODING 110
SWIDTH 1333 0
DWIDTH 16 0
BBX 14 6 1 0
BITMAP
FFFC
FFFC
C00C
C00C
C00C
C00C
ENDCHAR
STARTCHAR o
ENCODING 111
SWIDTH 1333 0
DWIDTH 16 0
BBX 14 6 1 0
BITMAP
FFFC
FFFC
C00C
C00C
FFFC
FFFC
ENDCHAR
STARTCHAR p
ENCODING 112
SWIDTH 1333 0
DWIDTH 16 0
BBX 14 8 1 -2
BITMAP
FFFC
FFFC
C00C
C00C
FFFC
FFFC
C000
C000
ENDCHAR
STARTCHAR q
ENCODING 113
SWIDTH 1333 0
DWIDTH 16 0
BBX 14 8 1 -2
BITMAP
FFFC
FFFC
C00C
C00C
FFFC
FFFC
000C
000C
ENDCHAR
STARTCHAR r
ENCODING 114
SWIDTH 1333 0
DWIDTH 16 0
BBX 14 6 1 0
BITMAP
FFFC
FFFC
C000
C000
C000
C000
ENDCHAR
STARTCHAR s
ENCODING 115
SWIDTH 1333 0
DWIDTH 16 0
BBX 14 8 1 0
BITMAP
FFF0
FFF0
C000
FFFC
FFFC
000C
3FFC
3FFC
ENDCHAR
STARTCHAR t
ENCODING 116
SWIDTH 1333 0
DWIDTH 16 0
BBX 14 8 1 0
BITMAP
3000
3000
FFFC
FFFC
3000
3000
3FFC
3FFC
ENDCHAR
STARTCHAR u
ENCODING 117
SWIDTH 1333 0
DWIDTH 16 0
BBX 14 6 1 0
BITMAP
C00C
C00C
C00C
C00C
FFFC
FFFC
ENDCHAR
STARTCHAR v
ENCODING 118
SWIDTH 1333 0
DWIDTH 16 0
BBX 14 6 1 0
BITMAP
C00C
C00C
C00C
C00C
FFF0
FFF0
ENDCHAR
STARTCHAR w
ENCODING 119
SWIDTH 1333 0
DWIDTH 16 0
BBX 14 6 1 0
BITMAP
C30C
C30C
C30C
C30C
FFFC
FFFC
ENDCHAR
STARTCHAR x
ENCODING 120
SWIDTH 1333 0
DWIDTH 16 0
BBX 14 8 1 0
BITMAP
C00C
C00C
C00C
3FF0
3FF0
C00C
C00C
C00C
ENDCHAR
STARTCHAR y
ENCODING 121
SWIDTH 1333 0
DWIDTH 16 0
BBX 14 8 1 -2
BITMAP
C00C
C00C
C00C
FFFC
FFFC
000C
3FFC
3FFC
ENDCHAR
STARTCHAR z
ENCODING 122
SWIDTH 1333 0
DWIDTH 16 0
BBX 14 8 1 0
BITMAP
3FFC
3FFC
000C
FFFC
FFFC
C000
FFF0
FFF0
ENDCHAR
STARTCHAR braceleft
ENCODING 123
SWIDTH 666 0
DWIDTH 8 0
BBX 6 8 1 0
BITMAP
3C
3C
30
F0
F0
30
3C
3C
ENDCHAR
STARTCHAR bar
ENCODING 124
SWIDTH 333 0
DWIDTH 4 0
BBX 2 8 1 0
BITMAP
C0
C0
C0
C0
C0
C0
C0
C0
ENDCHAR
STARTCHAR braceright
ENCODING 125
SWIDTH 666 0
DWIDTH 8 0
BBX 6 8 1 0
BITMAP
F0
F0
30
3C
3C
30
F0
F0
ENDCHAR
STARTCHAR asciitilde
ENCODING 126
SWIDTH 666 0
DWIDTH 8 0
BBX 6 2 1 6
BITMAP
FC
FC
ENDCHAR
STARTCHAR nonbreakingspace
ENCODING 160
SWIDTH 833 0
DWIDTH 10 0
BBX 1 1 0 0
BITMAP
00
ENDCHAR
STARTCHAR hyphen.dup1
ENCODING 8208
SWIDTH 1000 0
DWIDTH 12 0
BBX 10 2 1 3
BITMAP
FFC0
FFC0
ENDCHAR
STARTCHAR .notdef
ENCODING -1
SWIDTH 500 0
DWIDTH 6 0
BBX 5 9 1 0
BITMAP
F8
88
88
88
88
88
88
88
F8
ENDCHAR
STARTCHAR .null
ENCODING -1
SWIDTH 0 0
DWIDTH 0 0
BBX 1 1 0 0
BITMAP
00
ENDCHAR
STARTCHAR nonmarkingreturn
ENCODING -1
SWIDTH 833 0
DWIDTH 10 0
BBX 1 1 0 0
BITMAP
00
ENDCHAR
STARTCHAR DEL
ENCODING -1
SWIDTH 833 0
DWIDTH 10 0
BBX 1 1 0 0
BITMAP
00
ENDCHAR
ENDFONT
